<?xml version="1.0" standalone="no"?>
<!DOCTYPE svg PUBLIC "-//W3C//DTD SVG 20010904//EN"
 "http://www.w3.org/TR/2001/REC-SVG-20010904/DTD/svg10.dtd">
<svg version="1.0" xmlns="http://www.w3.org/2000/svg"
 width="500.000000pt" height="500.000000pt" viewBox="0 0 500.000000 500.000000"
 preserveAspectRatio="xMidYMid meet">

<g transform="translate(0.000000,500.000000) scale(0.100000,-0.100000)"
fill="#000000" stroke="none">
<path d="M1910 4377 c-249 -75 -444 -264 -517 -502 -17 -55 -18 -106 -18 -670
l0 -610 34 -85 c25 -64 36 -110 43 -185 26 -288 53 -361 188 -496 47 -48 111
-101 143 -119 31 -17 57 -36 57 -40 0 -5 -10 -16 -22 -24 -16 -12 -47 -16
-111 -16 -80 0 -91 -2 -108 -22 -10 -13 -18 -26 -19 -30 0 -5 38 -8 85 -8 47
0 85 -3 85 -7 0 -5 -16 -25 -36 -45 l-35 -38 -93 0 c-88 0 -93 -1 -119 -28
-15 -15 -27 -31 -27 -35 0 -4 38 -7 85 -7 53 0 85 -4 85 -11 0 -5 -14 -28 -32
-50 l-31 -39 -102 0 -101 0 -44 -45 -43 -44 107 -3 108 -3 -54 -67 -53 -68
-103 0 -103 0 -50 -42 c-27 -24 -49 -46 -49 -50 0 -5 50 -8 110 -8 61 0 110
-3 110 -6 0 -3 -26 -41 -57 -85 l-58 -79 -121 0 -121 0 -41 -49 c-23 -27 -42
-51 -42 -54 0 -2 783 -3 1740 -3 957 1 1740 2 1740 3 0 1 -22 24 -49 52 l-50
51 -114 0 -114 0 -61 80 c-34 45 -62 83 -62 85 0 3 52 5 116 5 l117 0 -44 49
-44 49 -115 2 -115 1 -43 55 c-68 87 -70 84 54 84 l108 0 -44 45 -44 45 -103
0 -103 0 -35 38 c-53 57 -48 62 55 62 50 0 90 4 90 8 0 5 -13 21 -29 36 -29
28 -33 29 -124 27 l-95 -2 -30 37 c-17 21 -29 41 -26 46 3 4 41 8 85 8 43 0
79 4 79 8 0 5 -10 18 -23 30 -20 19 -35 22 -114 22 -74 0 -93 3 -106 18 -24
26 -21 36 16 54 106 51 240 193 287 304 32 78 46 151 56 299 5 74 14 118 35
170 45 115 49 176 46 780 l-2 560 -27 77 c-76 214 -236 375 -474 474 l-69 29
-610 2 c-606 2 -610 2 -685 -20z m1245 -68 c26 -7 50 -20 59 -34 14 -22 14
-22 -27 -14 -23 4 -288 8 -588 9 -621 0 -612 1 -698 -76 -51 -46 -121 -165
-121 -208 0 -44 -12 -66 -34 -66 -13 0 -25 2 -28 5 -3 3 1 35 8 70 31 147 121
270 226 306 49 17 95 18 606 19 372 0 568 -4 597 -11z m416 -246 c43 -57 65
-99 85 -162 36 -110 35 -101 11 -101 -19 0 -24 8 -34 62 -16 82 -66 182 -106
210 -18 13 -35 23 -39 23 -6 0 -65 79 -92 124 -20 32 142 -112 175 -156z
m-1473 145 c7 -7 12 -25 12 -40 0 -27 -2 -28 -45 -28 -44 0 -45 0 -45 33 0 19
3 37 7 40 11 11 58 8 71 -5z m-399 -75 c-72 -141 -72 -147 -73 -533 0 -335 1
-347 23 -402 32 -82 110 -164 188 -200 85 -38 221 -72 399 -100 446 -68 1034
22 1177 181 71 79 104 186 111 361 3 69 7 132 10 140 14 44 15 38 10 -39 -4
-58 -2 -81 5 -76 6 3 11 1 11 -5 0 -6 5 -8 10 -5 6 4 10 -19 10 -62 0 -99 -57
-266 -116 -338 -24 -30 -39 -55 -34 -57 4 -2 10 -51 12 -111 3 -93 1 -107 -12
-101 -57 22 -231 30 -338 15 -42 -6 -60 -15 -92 -46 -75 -73 -73 -160 6 -236
l35 -34 162 -5 162 -5 0 -38 0 -39 38 6 c89 15 197 98 234 181 15 34 18 76 21
295 3 273 5 300 26 300 18 0 28 -497 11 -581 -13 -67 -54 -140 -98 -173 -131
-100 -463 -164 -902 -173 -370 -8 -664 16 -902 72 -121 29 -192 63 -240 113
-87 93 -103 169 -103 495 l0 247 39 0 c70 0 71 6 71 309 0 258 -1 265 -22 288
-13 14 -33 23 -50 23 -23 0 -28 4 -24 18 2 9 8 32 11 51 20 98 106 227 196
295 33 25 62 46 64 46 1 0 -15 -35 -36 -77z m1023 20 c24 -21 23 -58 -2 -83
-18 -18 -33 -20 -149 -20 -104 0 -133 3 -145 16 -20 20 -20 53 0 82 14 21 22
22 146 22 108 0 135 -3 150 -17z m-273 -368 c29 -30 57 -53 61 -50 5 3 22 -17
38 -43 34 -55 110 -134 265 -275 59 -54 107 -102 107 -107 0 -4 -12 -27 -27
-49 -23 -36 -31 -41 -64 -41 -43 0 -52 -9 -70 -73 l-14 -48 -108 -3 c-78 -2
-110 0 -115 9 -4 7 -111 120 -239 251 -127 132 -241 251 -253 267 -26 33 -31
33 -62 6 l-23 -21 235 -240 c129 -132 239 -247 244 -256 22 -39 -365 24 -485
79 -95 44 -147 101 -187 208 -32 82 -32 85 -32 262 l0 179 338 0 338 0 53 -55z
m981 -125 c0 -167 -2 -184 -25 -245 -13 -37 -27 -71 -31 -76 -3 -6 -22 9 -42
32 -20 23 -54 50 -76 60 -75 34 -203 21 -259 -27 l-28 -23 -147 148 c-81 81
-183 185 -226 229 l-79 82 456 0 457 0 0 -180z m-1945 -172 c4 -220 3 -228
-16 -228 -18 0 -19 9 -19 231 0 204 2 230 16 227 13 -3 16 -34 19 -230z m2215
3 c0 -194 -2 -230 -15 -235 -13 -5 -15 25 -15 229 0 202 2 235 15 235 13 0 15
-32 15 -229z m-123 22 c-3 -10 -5 -4 -5 12 0 17 2 24 5 18 2 -7 2 -21 0 -30z
m-351 -149 c32 -15 74 -57 74 -74 0 -4 -24 -3 -52 2 -29 6 -81 8 -116 5 -50
-4 -67 -1 -84 13 -59 47 94 94 178 54z m-1476 -135 c0 -4 -7 -9 -14 -12 -14
-6 -20 4 -32 58 -4 16 1 13 20 -10 14 -16 26 -33 26 -36z m1405 -544 c31 -30
32 -62 3 -92 -43 -46 -128 -14 -128 49 0 63 78 91 125 43z m244 -1 c27 -34 27
-62 -1 -91 -43 -46 -128 -14 -128 49 0 65 88 94 129 42z m219 -463 c-7 -140
-10 -146 -88 -146 -56 0 -61 2 -56 20 3 11 6 26 6 33 0 8 18 12 55 12 37 0 55
4 55 13 1 56 11 160 15 168 15 23 17 2 13 -100z m-2010 48 c29 -10 32 -14 28
-45 -4 -41 -11 -51 -20 -29 -3 9 -2 13 4 10 6 -3 10 -2 10 4 0 19 -16 20 -28
1 -9 -15 -9 -22 3 -33 8 -8 11 -17 8 -21 -4 -3 5 -6 19 -6 16 0 28 -7 31 -17
2 -10 8 -26 12 -35 6 -16 0 -18 -53 -18 -69 0 -67 -3 -82 129 -10 89 -5 109
19 87 10 -9 32 -21 49 -27z m125 -319 l18 -30 -42 0 c-30 0 -50 6 -66 22 -33
31 -29 38 25 38 42 0 50 -3 65 -30z m847 0 c0 -23 -4 -30 -20 -30 -13 0 -18 5
-14 15 4 8 10 13 14 10 5 -3 6 4 3 15 -3 11 0 20 6 20 6 0 11 -13 11 -30z
m954 8 c-29 -35 -36 -38 -82 -38 l-43 0 16 30 c14 28 19 30 72 30 l56 0 -19
-22z m-139 -138 c-13 -21 -185 -90 -185 -75 0 3 19 14 43 26 23 12 53 30 66
40 25 20 87 27 76 9z m-1537 -25 c20 -14 42 -25 49 -25 6 0 14 -4 17 -9 9 -14
-101 18 -137 39 l-32 20 33 0 c19 0 49 -11 70 -25z m720 -17 c-2 -18 -6 -32
-10 -30 -5 1 -42 2 -84 2 -58 0 -73 3 -67 13 8 12 9 17 12 37 0 6 34 10 77 10
l75 0 -3 -32z m664 -236 l30 -37 -352 -3 c-193 -1 -507 -1 -698 0 l-346 3 33
37 c24 28 41 38 69 40 20 2 306 2 636 0 l598 -2 30 -38z m109 -145 c6 -12 21
-32 32 -44 11 -13 18 -26 14 -29 -6 -6 -1647 -11 -1647 -5 0 2 17 27 38 55
l39 51 756 -3 756 -2 12 -23z m110 -180 c17 -14 89 -120 89 -130 0 -4 -439 -7
-975 -7 -536 0 -975 2 -975 5 0 2 20 36 46 75 l45 70 878 0 c679 0 881 -3 892
-13z m-625 -235 l791 -2 12 -27 c7 -14 28 -49 46 -78 19 -29 35 -55 35 -59 0
-3 -516 -6 -1146 -6 -911 0 -1145 3 -1142 13 2 6 25 46 52 87 l48 75 257 -1
c141 0 612 -1 1047 -2z"/>
<path d="M1750 2789 c-51 -21 -100 -91 -100 -144 0 -31 24 -80 54 -113 42 -47
65 -52 229 -52 l154 0 40 29 c72 52 93 156 45 221 -10 14 -34 35 -52 48 -31
21 -43 22 -189 21 -86 0 -167 -5 -181 -10z m110 -99 c28 -28 27 -84 -2 -104
-70 -49 -151 32 -102 102 20 29 76 30 104 2z m239 -6 c27 -34 27 -64 1 -92
-39 -42 -130 -13 -130 40 0 22 18 60 34 70 26 18 75 8 95 -18z"/>
<path d="M2453 2733 c-118 -3 -143 -6 -143 -18 0 -13 39 -15 275 -15 240 0
274 2 269 15 -5 11 -22 15 -68 15 -33 0 -90 2 -126 3 -36 2 -129 2 -207 0z"/>
<path d="M2418 2662 c-128 -3 -167 -22 -45 -22 39 0 163 -3 275 -7 179 -5 202
-4 202 9 0 24 -41 30 -184 26 -72 -2 -184 -4 -248 -6z"/>
<path d="M2302 2588 c4 -10 70 -14 276 -16 238 -2 272 0 272 13 0 13 -36 15
-276 15 -216 0 -275 -3 -272 -12z"/>
<path d="M2442 2533 c-108 -3 -142 -7 -139 -16 3 -9 73 -13 281 -15 261 -2
277 -1 274 15 -3 16 -17 18 -138 18 -74 1 -199 -1 -278 -2z"/>
<path d="M2310 2455 c0 -13 37 -15 270 -15 233 0 270 2 270 15 0 13 -37 15
-270 15 -233 0 -270 -2 -270 -15z"/>
<path d="M2510 3723 c0 -6 8 -17 18 -24 16 -13 16 -13 2 6 -8 11 -16 22 -17
24 -2 2 -3 0 -3 -6z"/>
<path d="M1572 2165 c-11 -13 -10 -15 7 -15 14 0 19 5 15 15 -7 18 -6 18 -22
0z"/>
<path d="M1348 1637 c31 -7 46 -7 54 1 9 9 -1 12 -42 11 l-55 -1 43 -11z"/>
<path d="M3730 1626 c0 -10 17 -15 63 -18 34 -2 66 -1 71 3 20 17 -9 29 -70
29 -48 0 -64 -3 -64 -14z"/>
<path d="M3900 1475 c0 -11 12 -15 45 -15 33 0 45 4 45 15 0 11 -12 15 -45 15
-33 0 -45 -4 -45 -15z"/>
</g>
</svg>
