<?xml version="1.0" standalone="no"?>
<!DOCTYPE svg PUBLIC "-//W3C//DTD SVG 20010904//EN"
 "http://www.w3.org/TR/2001/REC-SVG-20010904/DTD/svg10.dtd">
<svg version="1.0" xmlns="http://www.w3.org/2000/svg"
 width="500.000000pt" height="500.000000pt" viewBox="0 0 500.000000 500.000000"
 preserveAspectRatio="xMidYMid meet">

<g transform="translate(0.000000,500.000000) scale(0.100000,-0.100000)"
fill="#000000" stroke="none">
<path d="M2849 4540 c-161 -15 -278 -60 -294 -111 -10 -29 21 -55 43 -37 9 8
10 14 3 16 -36 12 14 62 62 62 15 0 42 6 60 13 50 21 87 29 87 17 0 -5 -16
-16 -35 -24 -52 -22 -46 -44 10 -41 34 3 45 0 49 -13 3 -9 12 -89 21 -177 18
-180 19 -185 39 -185 11 0 13 6 6 30 -14 49 -44 315 -37 333 5 13 39 15 271
15 146 0 266 -3 266 -8 0 -4 -26 -29 -57 -56 -56 -48 -322 -314 -314 -314 2 0
63 57 135 128 72 70 160 151 196 181 36 29 70 60 77 68 6 8 17 13 23 11 17 -5
-383 -386 -412 -392 -12 -3 -61 -7 -107 -8 -98 -3 -117 -17 -85 -61 10 -15 25
-27 32 -27 6 0 12 -5 12 -10 0 -6 11 -15 23 -19 18 -7 28 -24 41 -69 15 -55
23 -65 87 -117 38 -32 72 -56 74 -53 3 3 -15 56 -40 118 -25 61 -45 119 -45
127 0 27 58 98 172 208 202 196 292 277 321 287 37 14 31 28 -24 55 l-44 22
40 -5 c102 -14 205 -54 205 -79 0 -18 -21 -19 -41 -3 -7 7 -2 0 13 -16 30 -33
58 -30 58 7 0 43 -72 90 -175 114 -71 17 -581 26 -716 13z m561 -60 c28 -18
-13 -20 -274 -18 -197 2 -260 6 -264 16 -3 9 53 12 260 12 145 0 270 -4 278
-10z"/>
<path d="M2610 4429 c0 -5 5 -7 10 -4 6 3 10 8 10 11 0 2 -4 4 -10 4 -5 0 -10
-5 -10 -11z"/>
<path d="M3496 4310 c16 -19 43 -53 59 -75 16 -22 42 -56 59 -76 17 -19 76
-90 131 -157 54 -67 101 -122 103 -122 3 0 0 6 -5 13 -163 207 -338 421 -359
437 -10 8 -5 -1 12 -20z"/>
<path d="M1533 4087 c-57 -5 -101 -12 -99 -16 2 -3 -19 -7 -47 -8 -29 -2 -65
-7 -82 -12 -23 -8 -15 -9 40 -6 39 1 61 0 51 -2 -11 -3 -37 -16 -59 -30 -21
-13 -45 -22 -53 -19 -9 3 -12 1 -9 -4 3 -6 1 -10 -5 -10 -6 0 -8 -4 -5 -10 3
-5 -1 -10 -10 -10 -9 0 -43 -23 -75 -51 -51 -44 -61 -49 -79 -39 -29 15 -71
-6 -89 -43 -12 -25 -11 -31 4 -55 10 -15 19 -30 19 -34 0 -3 4 -10 9 -15 5 -4
6 -3 3 3 -4 7 1 18 11 25 16 13 16 13 2 -5 -8 -11 -14 -21 -12 -24 2 -3 -20
-12 -49 -19 -28 -7 -72 -22 -97 -33 -24 -11 -46 -20 -48 -20 -12 0 42 175 64
208 8 12 12 25 9 28 -11 12 -61 -92 -88 -184 -34 -119 -96 -528 -119 -782 -5
-58 -20 -204 -34 -325 -14 -121 -26 -247 -28 -280 -3 -56 -5 -60 -28 -63 -14
-2 -29 -8 -35 -14 -7 -7 0 -8 21 -4 l32 7 7 -87 c18 -221 92 -344 231 -388 88
-28 256 -39 494 -32 346 9 468 41 568 151 72 78 93 130 136 327 6 24 9 26 38
18 18 -4 55 -11 81 -15 36 -5 47 -10 43 -21 -3 -8 -12 -56 -21 -107 -26 -148
-61 -269 -109 -369 -72 -151 -59 -144 -282 -157 -200 -11 -993 -9 -1153 4 -69
6 -92 5 -87 -4 4 -6 27 -11 51 -11 50 0 77 -8 69 -21 -3 -5 -30 -6 -60 -3
l-54 7 6 -49 c16 -128 56 -203 137 -259 l59 -40 266 -7 c147 -3 296 -7 330 -7
79 -1 80 -20 1 -36 -189 -41 -323 -67 -459 -90 -85 -15 -157 -28 -160 -30 -3
-2 -107 -24 -230 -50 -212 -43 -477 -99 -527 -110 -15 -3 -23 -13 -23 -25 0
-11 2 -20 4 -20 8 0 330 69 471 100 77 18 187 40 245 51 58 10 160 30 228 44
68 14 160 26 205 28 196 5 1350 -5 1327 -13 -73 -24 -238 -73 -335 -99 -111
-29 -430 -117 -695 -190 -192 -53 -416 -117 -630 -181 -96 -28 -228 -67 -292
-86 -146 -42 -168 -52 -161 -71 9 -23 77 -10 265 48 90 28 222 68 293 89 72
21 229 67 350 103 206 61 967 277 1245 354 69 19 188 53 265 75 77 22 212 60
300 85 88 24 273 77 410 118 138 40 347 101 465 135 262 75 512 149 681 201
97 30 128 44 138 61 6 13 25 31 41 40 29 17 30 19 32 100 0 46 0 90 -1 98 -1
8 -5 40 -9 70 -5 49 -7 51 -12 22 -6 -41 -23 -45 -31 -6 l-7 29 -1 -28 c-1
-33 -21 -27 -21 6 -1 22 -1 22 -15 3 -14 -18 -15 -17 -16 25 0 39 -2 41 -11
22 -6 -13 -14 -23 -18 -23 -10 0 -23 175 -15 200 13 40 25 8 27 -68 l2 -77 5
75 c5 56 8 71 16 58 6 -9 13 -17 18 -17 4 -1 9 -2 12 -2 3 -1 10 -3 15 -4 6
-1 14 -3 19 -4 5 0 12 -13 14 -28 l4 -28 2 28 c1 27 16 37 23 15 3 -8 9 -8 24
0 17 10 17 11 2 12 -10 0 -18 6 -18 13 0 8 -21 28 -47 44 -132 86 -130 84
-132 159 -1 38 -6 73 -11 78 -7 7 -8 -6 -4 -38 6 -41 5 -48 -7 -41 -11 6 -12
5 -1 -6 6 -7 12 -26 12 -42 l0 -30 -19 24 c-10 14 -44 38 -75 54 -82 43 -109
67 -104 94 3 22 5 22 73 -24 39 -25 57 -35 40 -20 -16 14 -49 38 -72 53 -38
24 -43 31 -44 67 -1 49 -11 87 -24 92 -6 2 -9 -20 -7 -53 l4 -56 -124 83 c-67
46 -125 84 -126 85 -2 1 -8 31 -12 66 -12 88 -20 108 -40 108 -16 0 -17 -8
-13 -67 l6 -68 -24 21 c-32 28 -286 201 -357 242 -31 19 -64 40 -72 47 -27 25
-638 425 -697 458 -31 17 -33 20 -33 76 0 68 -27 196 -47 228 -8 12 -25 25
-36 29 -12 3 -37 17 -54 31 -18 13 -33 22 -33 20 0 -2 7 -23 15 -48 16 -47 47
-240 40 -248 -3 -2 -10 1 -17 6 -7 6 -30 16 -50 22 -35 12 -38 15 -38 51 0 43
-23 64 -63 58 -16 -2 -22 -10 -22 -28 0 -14 -7 -28 -17 -32 -18 -7 -31 -68
-26 -120 3 -30 0 -33 -27 -38 l-30 -5 -5 -219 c-5 -237 -5 -239 47 -252 25 -7
26 -7 19 -82 -3 -41 -6 -129 -6 -196 -1 -103 -3 -118 -14 -103 -7 9 -16 40
-20 67 -6 42 -13 54 -54 89 -26 23 -52 41 -58 41 -7 0 -15 7 -18 16 -4 10 -12
14 -22 10 -18 -7 -20 -26 21 227 15 87 29 165 32 173 7 20 25 13 40 -17 11
-20 13 -2 13 114 l0 137 33 48 c40 56 48 75 38 90 -5 8 -20 4 -51 -13 -52 -29
-98 -51 -122 -59 -21 -6 -45 -50 -49 -91 -4 -28 -2 -30 34 -33 32 -3 37 -6 31
-20 -18 -44 -118 -641 -165 -992 -17 -123 -31 -226 -32 -227 -2 -1 -20 2 -42
7 -22 5 -55 10 -73 10 -27 0 -32 3 -28 18 3 9 26 154 51 322 156 1039 193
1211 286 1341 25 36 114 89 149 89 48 0 4 17 -85 33 -235 43 -699 59 -962 34z
m67 -166 c14 -27 13 -37 -6 -55 -40 -40 -101 3 -75 53 15 28 66 29 81 2z
m-504 -86 c9 -21 -24 -67 -44 -63 -24 5 -27 36 -6 59 21 23 42 25 50 4z m1018
-1 c7 -19 -10 -44 -30 -44 -20 0 -44 29 -38 45 8 20 60 19 68 -1z m-688 -164
c-3 -11 -9 -29 -12 -40 -6 -19 -2 -20 132 -20 305 -1 488 -13 500 -32 4 -7 2
-8 -4 -4 -8 5 -13 -2 -13 -21 l-2 -28 -4 28 c-6 40 -20 33 -15 -8 2 -19 9 -35
14 -35 6 0 8 -13 6 -29 -2 -17 -1 -28 4 -25 4 3 9 22 9 42 1 25 3 30 6 13 3
-12 2 -33 -1 -45 -5 -21 -12 -22 -93 -24 -49 -1 -140 -5 -203 -8 -109 -6 -115
-7 -116 -28 0 -11 -3 -35 -8 -52 l-7 -31 77 -6 c42 -4 140 -8 218 -8 78 -1
131 -4 119 -6 -14 -3 -20 -9 -16 -19 3 -8 0 -14 -7 -14 -6 0 -9 -4 -6 -9 4 -5
1 -11 -5 -13 -12 -4 -14 -132 -2 -151 4 -6 7 -30 8 -54 l2 -43 -184 0 c-100 0
-183 -1 -183 -3 0 -2 -16 -64 -35 -138 -19 -74 -35 -139 -35 -145 0 -7 48 -13
136 -18 123 -6 139 -5 157 11 20 18 20 18 3 -8 -9 -15 -27 -30 -39 -33 -12 -3
-147 -6 -299 -6 l-276 0 -13 -52 c-16 -69 -21 -261 -7 -269 19 -12 -2 -29 -36
-29 -30 0 -35 5 -54 48 -12 26 -39 80 -61 121 -23 40 -38 78 -34 85 4 6 -1 5
-10 -3 -11 -8 -17 -9 -17 -3 0 6 -14 27 -31 47 l-32 36 17 196 c9 108 13 200
9 204 -5 4 -24 9 -42 11 l-35 3 -23 -180 c-12 -99 -33 -265 -45 -370 l-23
-190 -42 -6 c-24 -3 -47 -3 -52 0 -5 4 -6 32 -1 66 4 33 9 49 10 35 2 -24 3
-24 10 5 4 17 8 44 8 60 l0 30 -8 -30 c-34 -134 34 495 116 1079 7 45 10 50
48 66 75 33 292 66 455 69 69 1 73 0 67 -19z m1344 -54 l55 -22 8 -69 c4 -37
5 -70 3 -73 -3 -2 -25 7 -50 21 l-45 25 -4 -41 c-3 -36 -4 -34 -5 14 -2 60
-11 69 -69 69 -21 0 -23 5 -23 55 l0 56 38 -7 c20 -4 62 -16 92 -28z m284
-164 c16 -9 89 -57 163 -107 74 -49 154 -101 176 -115 23 -13 104 -65 179
-115 75 -49 232 -152 348 -229 l210 -138 0 -46 0 -45 -22 20 c-25 22 -204 143
-212 143 -3 0 -26 14 -51 32 -38 27 -45 37 -47 67 l-1 36 -4 -32 c-2 -18 -7
-33 -10 -33 -4 0 -52 29 -107 64 -56 35 -123 76 -151 92 -27 15 -69 41 -92 58
-39 27 -43 33 -45 75 l-1 46 -4 -42 c-4 -43 -11 -51 -28 -34 -6 5 -26 18 -45
29 -78 44 -157 90 -190 111 -19 13 -62 40 -95 60 l-59 38 -2 62 -3 62 32 -21
c18 -12 45 -29 61 -38z m-61 -605 l-9 -102 -8 186 c-5 103 -5 233 0 290 l9
104 9 -188 c5 -113 5 -229 -1 -290z m-232 376 c4 -47 -5 -781 -9 -755 -1 7 -6
11 -11 7 -5 -3 -12 -1 -16 5 -4 6 -13 5 -26 -3 -16 -10 -21 -9 -29 3 -8 13
-10 12 -12 -5 -3 -36 -15 216 -17 351 -1 172 6 224 31 224 10 0 30 11 44 25
20 20 25 35 23 63 -4 68 1 132 10 132 5 0 10 -21 12 -47z m66 -50 c-2 -16 -4
-5 -4 22 0 28 2 40 4 28 2 -13 2 -35 0 -50z m298 -120 l55 -27 0 -186 c0 -102
-3 -242 -7 -312 -6 -120 -7 -126 -25 -117 -16 9 -18 5 -18 -39 0 -59 -18 -87
-48 -78 l-22 7 0 390 c0 214 2 389 5 389 2 0 29 -12 60 -27z m-2186 -207 c-7
-102 -16 -186 -20 -186 -5 0 -6 -6 -4 -12 6 -17 -29 -325 -38 -334 -23 -23
-20 29 34 516 11 102 22 191 25 199 13 40 14 -16 3 -183z m2378 113 c10 -9 13
-72 12 -303 0 -160 -3 -298 -7 -306 -9 -20 -75 -20 -84 0 -4 8 -7 158 -7 333
l-1 317 37 -15 c20 -9 42 -20 50 -26z m281 -41 c56 -33 105 -65 108 -70 3 -5
3 -20 0 -33 -6 -24 -6 -24 -44 -7 -20 10 -74 37 -119 62 -82 44 -83 46 -83 84
0 46 -3 47 138 -36z m-146 -46 c23 -18 249 -132 263 -132 8 0 18 8 24 18 9 16
10 16 16 -1 4 -9 2 -37 -4 -62 -6 -24 -11 -122 -11 -218 0 -170 0 -174 -22
-186 -13 -6 -37 -11 -54 -9 -30 2 -32 5 -38 49 -7 53 -16 59 -84 59 -68 0 -90
-9 -100 -39 -6 -18 -11 39 -15 179 -9 282 -8 424 4 384 5 -17 15 -36 21 -42z
m876 -262 c99 -64 112 -76 112 -101 l0 -28 -122 73 c-121 71 -123 74 -126 111
-3 31 -1 37 10 29 7 -6 64 -43 126 -84z m-453 48 l25 -11 0 -228 c0 -125 -3
-234 -6 -243 -3 -9 -17 -16 -29 -16 l-24 0 0 255 c-1 140 1 255 3 255 3 0 17
-5 31 -12z m253 -280 c-1 -178 -4 -242 -8 -183 -3 50 -7 80 -8 69 -2 -19 -32
-57 -32 -40 0 4 -9 2 -20 -4 -19 -10 -20 -8 -20 32 -1 24 -3 122 -7 218 -5
170 -5 175 13 159 11 -8 31 -20 47 -27 26 -11 27 -10 27 18 0 17 2 30 5 30 3
0 4 -123 3 -272z m-2345 215 c-65 -88 -125 -163 -130 -163 -3 0 11 21 31 48
20 26 55 71 77 100 22 28 42 52 45 52 3 0 -8 -17 -23 -37z m2203 17 c12 0 14
-34 12 -222 -2 -136 -7 -223 -13 -225 -5 -1 -17 2 -25 7 -12 8 -16 48 -19 231
-3 205 -2 222 14 216 9 -4 23 -7 31 -7z m-3006 -92 c6 -67 7 -69 9 -23 l3 50
55 -113 c30 -62 54 -115 52 -116 -2 -2 -42 -6 -88 -8 l-84 -5 7 81 c16 209 19
227 29 217 6 -6 14 -43 17 -83z m2807 10 c-2 -13 -4 -3 -4 22 0 25 2 35 4 23
2 -13 2 -33 0 -45z m467 -165 c-7 -138 -16 -169 -41 -136 -14 18 -19 226 -7
257 3 9 17 16 31 16 l25 0 -8 -137z m171 -272 c-13 -14 -15 2 -15 146 0 108 4
171 13 190 10 23 12 2 15 -147 2 -145 0 -176 -13 -189z m-119 338 c8 -13 6
-283 -3 -305 -16 -42 -23 3 -23 151 0 153 6 186 26 154z m-2697 -61 c-61 -75
-59 -73 -59 -62 0 10 88 114 97 114 3 0 -14 -24 -38 -52z m2771 -113 c0 -134
-7 -174 -26 -143 -6 9 -10 281 -5 295 1 1 8 0 16 -3 12 -5 15 -31 15 -149z
m163 105 c9 -12 20 -18 30 -14 10 3 20 -2 27 -15 13 -26 5 -26 -48 -1 -23 11
-42 27 -42 35 0 21 16 19 33 -5z m-14 -44 c6 -7 33 -21 59 -31 26 -10 50 -22
53 -28 4 -5 5 -34 3 -66 -1 -31 -3 -70 -3 -87 -1 -23 -7 -33 -21 -37 -18 -5
-20 0 -22 46 -1 51 -2 51 -5 10 -5 -56 -32 -60 -34 -5 -1 36 -2 36 -8 7 -4
-21 -13 -31 -29 -33 -22 -3 -22 -2 -22 117 0 117 5 136 29 107z m138 -159 c-2
-23 -3 -1 -3 48 0 50 1 68 3 42 2 -26 2 -67 0 -90z m-3202 84 c23 -5 -130 -8
-370 -8 -226 0 -374 4 -330 7 121 10 654 10 700 1z m987 -61 c57 -5 150 -17
208 -26 58 -8 120 -18 138 -20 l32 -5 0 -259 0 -260 -27 0 c-14 0 -114 -7
-222 -15 -108 -9 -268 -19 -356 -23 l-161 -7 52 105 c29 58 66 155 84 215 37
127 71 292 64 310 -4 10 5 11 40 4 24 -4 91 -13 148 -19z m-1602 -60 c24 -24
26 -67 3 -100 -16 -24 -16 -24 0 -11 9 7 17 9 17 4 0 -20 -26 -33 -66 -33 -33
0 -47 5 -58 22 -21 30 -12 34 20 9 37 -29 49 -27 19 4 -31 30 -32 73 -5 103
26 27 44 28 70 2z m1077 5 c13 -9 27 -34 33 -56 10 -37 9 -44 -11 -65 -17 -18
-33 -24 -64 -24 -42 0 -85 22 -85 43 0 8 2 9 8 1 13 -20 50 -34 84 -33 l33 2
-30 4 c-67 10 -96 75 -53 120 25 27 54 29 85 8z m1083 -256 l0 -240 -27 3
c-23 2 -28 8 -27 31 0 15 1 122 2 237 l2 210 25 0 25 0 0 -241z m-1733 224
c-20 -2 -52 -2 -70 0 -17 2 0 4 38 4 39 0 53 -2 32 -4z m2258 -63 c83 -11 178
-25 213 -31 l62 -11 0 -143 0 -143 -77 -7 c-43 -4 -143 -13 -223 -20 -80 -7
-148 -10 -151 -7 -11 14 3 382 15 382 6 0 79 -9 161 -20z m-2575 -82 c13 -25
13 -31 0 -55 -19 -34 -45 -40 -71 -17 -24 21 -25 61 -2 86 23 25 54 19 73 -14z
m785 7 c28 -27 30 -37 15 -65 -33 -62 -120 -32 -120 40 0 50 65 66 105 25z
m2368 5 c15 0 17 -12 17 -115 0 -103 -2 -115 -17 -115 -10 0 -35 -3 -55 -6
l-38 -7 0 128 0 128 38 -7 c20 -3 45 -6 55 -6z m147 -114 l0 -104 -32 -5 c-18
-2 -34 -4 -36 -2 -6 5 -11 173 -5 193 4 17 13 22 39 22 l34 0 0 -104z m180 0
c0 -84 -5 -96 -41 -96 -5 0 -9 41 -9 90 0 89 0 90 25 90 25 0 25 -1 25 -84z
m82 -11 c-3 -72 -5 -75 -28 -75 -23 0 -24 2 -24 75 l0 75 28 0 27 0 -3 -75z
m134 34 c-3 -17 -6 -47 -6 -65 0 -31 -3 -34 -30 -34 l-30 0 0 65 0 65 36 0
c36 0 36 -1 30 -31z m62 22 c9 -5 12 -25 10 -62 -2 -42 -7 -55 -20 -57 -16 -3
-18 5 -18 62 0 66 3 73 28 57z m90 -7 c18 -5 22 -13 22 -44 0 -53 -8 -70 -35
-70 -21 0 -24 6 -27 53 -6 70 -4 72 40 61z m-175 -131 c-7 -2 -19 -2 -25 0 -7
3 -2 5 12 5 14 0 19 -2 13 -5z m-550 -50 c-7 -2 -21 -2 -30 0 -10 3 -4 5 12 5
17 0 24 -2 18 -5z m682 -3 c-11 -5 -29 -8 -40 -8 -16 0 -15 2 5 8 34 11 60 11
35 0z m-1037 -37 c-15 -2 -42 -2 -60 0 -18 2 -6 4 27 4 33 0 48 -2 33 -4z
m859 1 c-3 -3 -12 -4 -19 -1 -8 3 -5 6 6 6 11 1 17 -2 13 -5z m-1004 -11 c-13
-2 -33 -2 -45 0 -13 2 -3 4 22 4 25 0 35 -2 23 -4z m792 -2 c-14 -13 -113 -25
-100 -13 9 10 41 17 90 21 11 0 15 -3 10 -8z m-897 -8 c-10 -2 -26 -2 -35 0
-10 3 -2 5 17 5 19 0 27 -2 18 -5z m-95 -10 c-7 -2 -19 -2 -25 0 -7 3 -2 5 12
5 14 0 19 -2 13 -5z m1027 -7 c0 -3 -26 -10 -57 -16 -32 -6 -67 -14 -78 -17
-14 -4 -17 -2 -10 5 14 15 145 40 145 28z m-1410 -26 c0 -5 -10 -10 -22 -10
-19 0 -20 2 -8 10 19 13 30 13 30 0z m-183 -16 c-3 -3 -12 -4 -19 -1 -8 3 -5
6 6 6 11 1 17 -2 13 -5z m1179 -3 c-3 -5 -27 -12 -53 -15 -27 -4 -64 -10 -83
-13 -60 -10 -23 10 43 23 78 15 100 16 93 5z m-1243 -8 c-13 -2 -35 -2 -50 0
-16 2 -5 4 22 4 28 0 40 -2 28 -4z m-155 -10 c-10 -2 -26 -2 -35 0 -10 3 -2 5
17 5 19 0 27 -2 18 -5z m-120 -10 c-15 -2 -42 -2 -60 0 -18 2 -6 4 27 4 33 0
48 -2 33 -4z m1497 -9 c-27 -8 -74 -21 -103 -30 -29 -8 -58 -12 -65 -7 -7 4
24 16 78 30 100 24 172 30 90 7z m-1642 -1 c-23 -2 -64 -2 -90 0 -26 2 -7 3
42 3 50 0 71 -1 48 -3z m-963 -18 c300 0 511 -3 470 -7 -103 -9 -1005 -11
-1057 -2 -24 3 -43 11 -43 15 0 5 19 6 43 2 23 -5 287 -8 587 -8z m618 8 c-10
-2 -28 -2 -40 0 -13 2 -5 4 17 4 22 1 32 -1 23 -4z m145 0 c-18 -2 -48 -2 -65
0 -18 2 -4 4 32 4 36 0 50 -2 33 -4z m1202 -44 c4 -6 5 -12 4 -14 -4 -3 -279
-55 -293 -55 -3 0 -6 6 -6 13 0 8 27 18 73 26 39 8 101 20 137 26 36 7 68 14
72 14 4 1 10 -4 13 -10z m35 -58 c-8 -5 -44 -14 -80 -21 -36 -6 -101 -20 -145
-31 -94 -22 -128 -24 -123 -7 5 15 243 66 313 67 33 0 45 -3 35 -8z"/>
<path d="M1350 3330 c0 -5 21 -10 48 -9 38 1 42 2 22 9 -36 12 -70 12 -70 0z"/>
<path d="M1046 2615 c-9 -26 -7 -32 5 -12 6 10 9 21 6 23 -2 3 -7 -2 -11 -11z"/>
<path d="M3078 2463 c6 -2 18 -2 25 0 6 3 1 5 -13 5 -14 0 -19 -2 -12 -5z"/>
<path d="M2614 1995 c-17 -27 -14 -76 7 -102 30 -35 89 2 89 57 0 63 -64 93
-96 45z m54 -52 c-10 -2 -26 -2 -35 0 -10 3 -2 5 17 5 19 0 27 -2 18 -5z"/>
<path d="M3394 1865 c0 -82 2 -115 3 -72 2 43 2 110 0 150 -1 40 -3 5 -3 -78z"/>
<path d="M482 3628 c-10 -13 -15 -46 -13 -80 2 -31 31 -21 31 10 0 16 3 31 6
35 4 3 55 -28 114 -68 102 -71 108 -74 114 -52 12 46 7 67 -16 67 -13 0 -63
23 -112 50 -95 53 -108 57 -124 38z"/>
<path d="M475 3511 c-3 -6 -23 -11 -44 -11 -37 0 -39 -2 -44 -37 -9 -53 -10
-380 -2 -393 11 -18 91 -12 116 9 23 19 24 25 29 193 6 210 3 242 -27 246 -11
2 -24 -2 -28 -7z"/>
<path d="M3361 3474 c0 -11 3 -14 6 -6 3 7 2 16 -1 19 -3 4 -6 -2 -5 -13z"/>
<path d="M3372 3385 c0 -16 2 -22 5 -12 2 9 2 23 0 30 -3 6 -5 -1 -5 -18z"/>
<path d="M3783 3085 c0 -22 2 -30 4 -17 2 12 2 30 0 40 -3 9 -5 -1 -4 -23z"/>
<path d="M4560 2591 c0 -6 4 -13 10 -16 6 -3 7 1 4 9 -7 18 -14 21 -14 7z"/>
<path d="M4910 2161 c5 -11 10 -36 10 -55 0 -20 5 -36 10 -36 14 0 12 84 -2
98 -19 19 -30 14 -18 -7z"/>
<path d="M4821 2104 c0 -11 3 -14 6 -6 3 7 2 16 -1 19 -3 4 -6 -2 -5 -13z"/>
</g>
</svg>
